<?xml version="1.0" encoding="UTF-8" standalone="no"?>
<!-- Created with Inkscape (http://www.inkscape.org/) -->

<svg
   version="1.1"
   id="svg2"
   width="24.959999"
   height="23.68"
   viewBox="0 0 24.959999 23.68"
   xmlns="http://www.w3.org/2000/svg"
   xmlns:svg="http://www.w3.org/2000/svg">
  <defs
     id="defs6" />
  <g
     id="g8">
    <path
       style="fill:#000000;stroke-width:0.32"
       d="M 4.0660955,19.959429 C 3.7272456,19.620579 4.6980993,18.124406 5.8178065,17.259884 7.6229312,15.866154 9.3625311,15.36 12.347512,15.36 c 1.504009,0 3.049095,0.162963 3.433524,0.362139 2.072556,1.07381 3.738963,2.362627 3.738963,2.891754 0,0.773454 -0.324606,0.739531 -1.671818,-0.174711 C 14.122178,15.910648 8.0902989,16.414654 5.3100142,19.486834 4.6729451,20.190788 4.4008357,20.294169 4.0660955,19.959429 Z M 11.84,12.96 c 0,-0.64 0.16,-0.8 0.799999,-0.8 0.64,0 0.8,0.16 0.8,0.8 0,0.64 -0.16,0.8 -0.8,0.8 C 12,13.76 11.84,13.6 11.84,12.96 Z M 9.7044476,8.9659978 C 7.8677715,8.5750544 6.4562055,7.8166221 5.0399998,6.4597978 3.8809202,5.3493181 3.4504911,4.16 4.2076738,4.16 c 0.2022207,0 0.8587276,0.5056221 1.4589045,1.1236045 1.4299459,1.4723683 2.9515327,2.0859193 5.7093227,2.3021763 3.016718,0.236561 5.395926,-0.4596496 7.349807,-2.1507216 1.539466,-1.3323981 2.074291,-1.5549178 2.074291,-0.8630298 0,0.5767776 -2.819541,3.2482452 -4.11728,3.9010535 -1.261989,0.6348243 -5.053392,0.9026326 -6.9782714,0.4929149 z"
       id="path30" />
  </g>
</svg>
