<?xml version="1.0" encoding="UTF-8" standalone="no"?>
<!-- Created with Inkscape (http://www.inkscape.org/) -->

<svg
   version="1.1"
   id="svg22"
   width="33.919998"
   height="20.16"
   viewBox="0 0 33.919998 20.16"
   xmlns="http://www.w3.org/2000/svg"
   xmlns:svg="http://www.w3.org/2000/svg">
  <defs
     id="defs26" />
  <g
     id="g28">
    <path
       style="fill:#000000;stroke-width:0.32"
       d="M 3.9381713,11.634268 C 3.8406913,11.38024 3.8179105,11.115423 3.8875473,11.045786 4.3124292,10.620904 20.419972,10.371973 20.831921,10.783922 c 0.781759,0.781759 -0.793528,0.991921 -8.614218,1.149236 -6.8711235,0.138215 -8.1292268,0.0928 -8.2795317,-0.29889 z M 22.520684,11.368933 c -0.570664,-0.419075 -0.555662,-0.45831 0.300147,-0.785028 1.346671,-0.514111 7.319357,-0.444438 8.055676,0.09397 0.583698,0.426809 0.583221,0.44579 -0.01884,0.750987 -1.003181,0.508533 -7.627742,0.460912 -8.336985,-0.05993 z M 19.181613,7.3256451 C 18.707018,6.438856 19.210582,5.9329603 20.29657,6.2055258 21.179761,6.4271926 21.35674,6.9952586 20.735999,7.616 20.162542,8.1894563 19.586303,8.0818163 19.181613,7.3256451 Z M 13.236078,6.8809341 C 13.125495,6.59276 13.182843,6.2091558 13.363519,6.0284806 c 0.521633,-0.5216332 1.51648,-0.1700688 1.51648,0.5359018 0,0.8139744 -1.353062,1.0745187 -1.643921,0.3165517 z"
       id="path32" />
  </g>
</svg>
