<?xml version="1.0" encoding="UTF-8" standalone="no"?>
<!-- Created with Inkscape (http://www.inkscape.org/) -->

<svg
   version="1.1"
   id="svg12"
   width="18.559999"
   height="24.959999"
   viewBox="0 0 18.559999 24.959999"
   xmlns="http://www.w3.org/2000/svg"
   xmlns:svg="http://www.w3.org/2000/svg">
  <defs
     id="defs16" />
  <g
     id="g18">
    <path
       style="fill:#000000;stroke-width:0.32"
       d="M 7.5199996,20.666283 C 5.9206614,19.899803 3.8399998,18.156964 3.8399998,17.58378 c 0,-0.668656 1.3271593,-0.245208 2.1575314,0.68839 1.6680095,1.875364 3.9012897,2.411652 5.8488728,1.404517 2.697309,-1.394833 1.910377,-4.547815 -1.428458,-5.723367 C 9.6160753,13.670994 8.3308616,13.219293 7.5619158,12.949541 6.7929696,12.679789 5.5689696,11.909909 4.8419159,11.238696 3.6171684,10.108016 3.5199998,9.8954454 3.5199998,8.3468109 c 0,-1.3359635 0.1938291,-1.9532198 0.9655756,-3.0749151 C 5.016642,4.5000168 5.7686829,3.6460715 6.1567773,3.3742399 7.7270629,2.2743688 12.051895,3.2279794 13.06487,4.8974507 13.988326,6.419385 13.096393,6.5097357 11.561931,5.0496948 10.339092,3.8861646 9.9830487,3.7225138 8.6312261,3.7026315 6.0491242,3.6646549 4.834034,5.4045255 5.7535747,7.8231008 6.0995734,8.7331465 6.426832,8.8994979 9.9199995,9.9409689 c 4.5689365,1.3622061 6.0934925,3.1925061 5.3903125,6.4713191 -0.487668,2.273921 -1.376719,3.610209 -2.764853,4.155717 -2.290999,0.900315 -3.3103331,0.920249 -5.0254594,0.09828 z"
       id="path171" />
  </g>
</svg>
