<?xml version="1.0" encoding="UTF-8" standalone="no"?>
<!-- Created with Inkscape (http://www.inkscape.org/) -->

<svg
   version="1.1"
   id="svg2"
   width="88"
   height="92"
   viewBox="0 0 88 92"
   xmlns="http://www.w3.org/2000/svg"
   xmlns:svg="http://www.w3.org/2000/svg">
  <defs
     id="defs6" />
  <g
     id="g8">
    <path
       style="fill:#000000;stroke-width:1.33333"
       d="M 40.200937,64.653641 C 31.857303,60.769471 29.307861,60.5876 23.282685,63.446733 14.633963,67.55082 10.389528,62.768732 16.164573,55.426951 23.019257,46.712632 36.0277,46.229321 49.738101,54.179573 58.771075,59.417524 59.848641,59.551645 64.363828,56 c 6.638571,-5.221901 10.601984,-2.147457 5.753844,4.463291 -6.086591,8.299457 -17.6198,9.91488 -29.916735,4.19035 z m -17.03854,-30.86001 c -1.72057,-6.855295 3.45577,-10.419687 8.821738,-6.074588 2.400436,1.943753 2.88647,3.286885 2.191468,6.056 -0.752523,2.998286 -1.619519,3.55829 -5.508936,3.55829 -3.883363,0 -4.756844,-0.561721 -5.50427,-3.539702 z m 29.433638,0.794988 c -3.457848,-3.820879 -1.146584,-7.255286 4.882613,-7.255286 3.780779,0 4.596691,0.533747 4.981312,3.25863 0.282735,2.003068 -0.457628,3.929586 -1.921507,5 -3.295525,2.409746 -5.054734,2.18751 -7.942418,-1.003344 z"
       id="path477" />
  </g>
</svg>
