<?xml version="1.0" encoding="UTF-8" standalone="no"?>
<!-- Created with Inkscape (http://www.inkscape.org/) -->

<svg
   version="1.1"
   id="svg12"
   width="125.33333"
   height="237.33333"
   viewBox="0 0 125.33333 237.33333"
   xmlns="http://www.w3.org/2000/svg"
   xmlns:svg="http://www.w3.org/2000/svg">
  <defs
     id="defs16" />
  <g
     id="g18">
    <path
       style="fill:#000000;stroke-width:1.33333"
       d="m 23.555555,207.1111 c -1.950358,-1.95036 -0.62688,-5.28004 4.913418,-12.36145 9.23771,-11.80733 12.247965,-23.20951 11.982922,-45.38863 -0.151312,-12.66192 -0.894211,-20.21634 -2.514247,-25.56695 -2.349426,-7.75963 -1.91468,-12.44878 1.063052,-11.46597 0.916282,0.30241 4.065966,3.5917 6.999299,7.30952 7.662809,9.71214 17.278745,13.99518 28.827918,12.84025 10.787279,-1.07873 15.371662,-3.40791 18.14201,-9.21739 4.096618,-8.5907 -0.05006,-13.02069 -19.636596,-20.97823 -2.566666,-1.04278 -7.366666,-3.133953 -10.666666,-4.647058 -3.3,-1.513104 -8.283868,-3.784457 -11.075261,-5.047449 -9.55628,-4.323828 -15.944048,-17.439148 -12.934724,-26.557487 2.889822,-8.756245 14.374535,-16.456315 25.052717,-16.79691 8.403158,-0.268029 26.198274,1.717761 27.972791,3.121536 2.18556,1.72894 6.984476,12.594892 6.984476,15.814608 0,3.399888 -4.266361,3.220537 -7.460016,-0.313606 -3.095709,-3.425753 -13.023402,-8.512116 -18.742017,-9.602299 -2.311118,-0.440586 -7.394963,-0.296331 -11.297434,0.320566 -8.996377,1.422136 -15.118264,7.625316 -13.907828,14.092515 1.044523,5.580748 3.904903,7.536952 20.349239,13.916771 21.434363,8.315774 24.622619,9.785179 28.732049,13.24205 6.411183,5.393113 8.096013,10.170053 7.083313,20.083093 -1.07433,10.5162 -2.72636,13.31448 -10.576535,17.91499 -5.245703,3.07419 -7.451192,3.50976 -17.771276,3.50976 -9.355186,0 -12.839611,-0.56668 -16.914863,-2.75088 -8.149399,-4.36781 -8.827964,-3.37184 -8.827964,12.95732 0,10.30517 -0.76876,17.10245 -2.756788,24.37517 -3.36974,12.32739 -11.282774,28.98895 -14.614481,30.77203 -2.819438,1.50892 -7.105484,1.72516 -8.406508,0.42413 z M 37.660106,30.460106 c -3.682691,-3.68269 -0.778015,-11.79344 4.223545,-11.79344 4.2671,0 6.38071,2.967206 5.873989,8.246235 -0.366997,3.823369 -0.965469,4.473573 -4.430868,4.813872 -2.203608,0.216392 -4.753608,-0.353608 -5.666666,-1.266667 z m 39.826295,-1.96963 c -5.456766,-3.822068 -2.446512,-11.857368 4.093253,-10.926162 3.296997,0.469466 4.450218,3.478928 3.216594,8.394078 -1.010048,4.024352 -3.799717,4.990676 -7.309847,2.532084 z"
       id="path338" />
  </g>
</svg>
