<?xml version="1.0" encoding="UTF-8" standalone="no"?>
<!-- Created with Inkscape (http://www.inkscape.org/) -->

<svg
   version="1.1"
   id="svg22"
   width="108"
   height="96"
   viewBox="0 0 108 96"
   xmlns="http://www.w3.org/2000/svg"
   xmlns:svg="http://www.w3.org/2000/svg">
  <defs
     id="defs26" />
  <g
     id="g28">
    <path
       style="fill:#000000;stroke-width:1.33333"
       d="m 59.555556,81.777777 c -1.870827,-1.870825 -0.839439,-8.377086 1.528881,-9.644572 5.293179,-2.832824 11.916092,4.114762 8.195738,8.597514 -1.633882,1.968706 -8.106102,2.665576 -9.724619,1.047058 z M 12.333333,49.741927 c -2.3555349,-0.891546 -2.07339,-5.30055 0.399934,-6.249652 1.13663,-0.436166 21.179314,-0.780899 44.539298,-0.766072 43.878385,0.02785 47.064415,0.412669 44.033595,5.318514 C 100.289,49.691139 93.29804,50.02944 57.049093,50.186372 33.372092,50.288876 13.25,50.088876 12.333333,49.741927 Z M 58.995739,18.462405 C 56.909323,16.375989 59.316291,12 62.550319,12 c 1.351072,0 3.203429,0.9 4.116348,2 3.318756,3.998857 -3.922199,8.211135 -7.670928,4.462405 z"
       id="path199" />
  </g>
</svg>
