<?xml version="1.0" encoding="UTF-8" standalone="no"?>
<!-- Created with Inkscape (http://www.inkscape.org/) -->

<svg
   version="1.1"
   id="svg32"
   width="96"
   height="96"
   viewBox="0 0 96 96"
   xmlns="http://www.w3.org/2000/svg"
   xmlns:svg="http://www.w3.org/2000/svg">
  <defs
     id="defs36" />
  <g
     id="g38">
    <path
       style="fill:#000000;stroke-width:1.33333"
       d="m 36.762084,85.487721 c -0.400745,-0.648418 -0.06144,-4.698418 0.754003,-9 0.815446,-4.30158 3.407153,-21.021054 5.759348,-37.154388 3.418656,-23.448014 4.700061,-29.4154253 6.386725,-29.7424935 3.062659,-0.5938934 3.963495,3.8239455 2.294719,11.2536595 -1.521459,6.773837 -7.73001,45.24464 -8.793595,54.488834 -1.038528,9.026402 -1.807277,11.333334 -3.776664,11.333334 -1.042749,0 -2.223791,-0.530526 -2.624536,-1.178946 z M 17.148576,66.12696 c -1.978229,-4.341737 0.530989,-7.767548 5.26948,-7.194371 7.32088,0.885547 7.149083,9.275598 -0.207933,10.154887 -2.694604,0.322051 -3.882479,-0.372741 -5.061547,-2.960516 z M 60.446889,35.241397 c -1.245005,-3.244432 1.303732,-6.57473 5.031759,-6.57473 2.653355,0 3.188019,0.670842 3.188019,4 0,3.374504 -0.574556,4.066088 -3.674248,4.422628 -2.501839,0.287772 -3.952263,-0.30187 -4.54553,-1.847898 z"
       id="path60" />
  </g>
</svg>
